<svg id="Layer_1" data-name="Layer 1" xmlns="http://www.w3.org/2000/svg" viewBox="0 0 724.51 875.14">
    <defs>
        <style>
            .cls-1 {
                fill: rgba(0, 171, 255, 1)
            }
        </style>
    </defs>
    <title>Robbins Family Society R logo</title><path
        class="cls-1"
        d="M175.69,185Q152,206.2,123.08,206.2q-22.09,0-37.83-12.5T64.62,160Q51.3,171.48,51.31,191.27q0,13.89,4.55,22.22L64,227q3.24,5.91,3.25,9.72l-.65,16.32q0,14.24,14,14.23,16.23,0,22.73-23.26,7.14,13.89,7.14,25.69,0,18.4-11,31.24A40.08,40.08,0,0,1,71.12,315.2q16.23,16,16.24,38.19Q48.06,339.85,24,307.21A120.47,120.47,0,0,1,0,234a119.27,119.27,0,0,1,17.7-63.35Q35.39,141.64,68,121T145.32,89Q190,77.76,244.21,77.76q14.61,0,26,.69-72.75,14.24-106.52,55.89-5.85,8-8.77,10.07t-10.39,4.17q-15.27,3.82-15.26,14.23,0,9.72,12.67,15.79T175.69,185ZM213,115.25a177,177,0,0,1,24.36-10.59,217.88,217.88,0,0,1,27.28-7.12,459,459,0,0,1,86.71-8,533.53,533.53,0,0,1,67.87,4.17,549.86,549.86,0,0,1,66.9,13,480.35,480.35,0,0,1,63.81,21q29.38,12.15,50.82,26,39.29,24.3,66.73,56.06a240.21,240.21,0,0,1,42.22,69.25,204.93,204.93,0,0,1,14.78,75.68,180.11,180.11,0,0,1-11.85,64.74,184.27,184.27,0,0,1-34.59,56.76Q655.33,502,623.19,521.4l-7.79-13.54q29.55-18.4,49.69-41a157.48,157.48,0,0,0,30.37-49.81,159.25,159.25,0,0,0,10.23-56.41A130.61,130.61,0,0,0,700,321.62a117.86,117.86,0,0,0-15.59-32.46,83.86,83.86,0,0,0-22.57-22.56q-12.67-8.33-26-8.33a27.67,27.67,0,0,0-20.13,8.33,27.25,27.25,0,0,0-8.44,20.13q0,13.2,11.37,20.48-14,4.87-22.08,4.86-30.53,0-47.09-27.42-13,11.81-19.16,24.82t-8.77,36.28q-23.38-8.33-37-26.38a66.69,66.69,0,0,1-13.64-41.31q0-11.11,6.17-27.77-30.86-8.67-38-36.1,6.49,3.47,10.72,3.47,7.79,0,11.2-3.64t13.15-17.53q9.09-11.8,14-16.32t12.67-4.51a43.54,43.54,0,0,1,8.93.69,64.27,64.27,0,0,1,8.44,2.78l13.48,5.21q26,8.33,49,8.33,12.67,0,28.58-4.86a244,244,0,0,0-57.64-29.68Q520.89,147.19,493,147.19q-31.17,0-52.61,19.44t-21.43,48.25q0,14.24,8.12,31.94-42.87,0-57.8-34.71Q353,222.86,345,235.71t-8.28,29.51Q320.85,259,311.11,242a74.76,74.76,0,0,1-9.74-37.84q0-19.79,9.42-35.41t30.53-29.85q-10.72-5.9-20.13-5.9-9.74,0-29.88,13.54-3.9,2.78-7.14,2.78-6.17,0-17.21-8.33-14-11.8-25.17-17.36T213,115.25Zm88.33-41.31q34.1-38.18,81.84-38.19a124,124,0,0,1,27.93,3.47Q412.42,26,424.6,17.7t31-8.33q12,0,20.46,4t27,18.92Q522.52,48.6,531,53.46a61.89,61.89,0,0,0,18.51,6.94q-13.32-15.62-13.31-36.8Q536.15,9.38,542,0a72.25,72.25,0,0,0,9.9,10.59,39.16,39.16,0,0,0,11,5.9q7,2.6,29.06,9.89,43.18,12.85,59.75,44.78,12.67-15.62,26.63-23.78T705,39.23q-5.2,11.46-5.2,20.48,0,12.85,6.5,27.77,10.06,25.34,10.07,31.24,0,7.64-2.44,12.5t-13.48,21.87q-8.12,12.5-10.72,23.43t-2.6,29.68a360.49,360.49,0,0,0-43-43.39,308.49,308.49,0,0,0-46.76-32.63Q572.84,116.3,538.1,103.1q-41.24-15.27-92.23-24a585,585,0,0,0-98.07-8.68A291.36,291.36,0,0,0,301.36,73.94ZM485.31,349.05q35.37,0,63.73,11.42a147,147,0,0,1,48.63,31.31,136.13,136.13,0,0,1,30.95,46.05A147.79,147.79,0,0,1,639.3,494.2q0,46.42-19.53,80.31T556,626.1v1.47q21.36,5.91,35.37,18.05a100.21,100.21,0,0,1,22.84,28.74,134,134,0,0,1,12.89,36.47,319.16,319.16,0,0,1,5.53,39.79q.73,12.54,1.47,29.47t2.58,34.63a230.77,230.77,0,0,0,5.89,33.53q4,15.85,12.16,26.89H539.1q-9.58-25-11.79-59.68t-6.63-66.31q-5.91-41.26-25.05-60.42T433,669.57H317.31V875.14H201.63V349.05ZM444,587q39.79,0,59.68-17.68t19.89-57.47q0-38.3-19.89-55.63T444,438.94H317.31V587Z"/></svg>
